<svg width="32" height="32" viewBox="0 0 32 32" fill="none" xmlns="http://www.w3.org/2000/svg">
<path fill-rule="evenodd" clip-rule="evenodd" d="M9.66675 4.66671C9.66679 2.82578 11.1592 1.33341 13.0001 1.33337C14.8411 1.33334 16.3335 2.82573 16.3334 4.66671C16.3334 6.50762 14.841 8 13.0001 8.00004C11.1591 8.00008 9.66671 6.50768 9.66675 4.66671ZM23.0001 5C23.0001 3.52724 24.194 2.33334 25.6667 2.33334C27.1395 2.33334 28.3334 3.52724 28.3334 5V21.6667C28.3334 22.5088 27.9431 23.2598 27.3334 23.7485V27.6667H29.0001C29.9206 27.6667 30.6667 28.4129 30.6667 29.3333C30.6667 30.2538 29.9206 31 29.0001 31H22.3334C21.4129 31 20.6667 30.2538 20.6667 29.3333C20.6667 28.4129 21.4129 27.6667 22.3334 27.6667H24.0001V23.7485C23.3904 23.2598 23.0001 22.5088 23.0001 21.6667V5ZM9.31954 9.6863C9.83909 8.97201 10.8257 8.78708 11.5687 9.26472C13.4924 10.5015 15.3931 10.6363 16.9051 10.3957C17.6682 10.2743 18.3227 10.0576 18.8083 9.84414C19.1956 9.67381 19.4033 9.53813 19.471 9.4939C19.4982 9.47613 19.5028 9.47312 19.4874 9.48857C20.138 8.83747 21.1933 8.8371 21.8444 9.48775C22.4955 10.1384 22.4959 11.1937 21.8452 11.8448C21.4583 12.232 20.8152 12.603 20.15 12.8955C19.4274 13.2132 18.4988 13.5174 17.4288 13.6876C16.8636 13.7776 16.2564 13.8302 15.6184 13.8272C16.2699 14.2146 17.0338 14.3431 18.8064 13.7522C19.6796 13.4611 20.6235 13.933 20.9146 14.8063C21.2056 15.6795 20.7337 16.6234 19.8605 16.9145C17.6425 17.6538 15.7387 17.7868 13.8928 16.6791C13.3948 16.3803 12.9199 15.9985 12.4537 15.5468C12.2883 15.8903 12.1116 16.2572 11.9244 16.6448C13.2209 17.7876 14.1147 19.5396 14.6432 21.3713C15.1843 23.2462 15.4124 25.4253 15.2344 27.6667H16.0007C16.9212 27.6667 17.6674 28.4129 17.6674 29.3333C17.6674 30.2538 16.9212 31 16.0007 31H13.3341C12.8383 31 12.3682 30.7793 12.0516 30.3977C11.7349 30.0162 11.6046 29.5135 11.6959 29.0262C12.1491 26.6093 11.992 24.2062 11.4406 22.2954C11.1396 21.2525 10.7511 20.4482 10.3462 19.8671C9.16392 22.2418 7.75918 24.9635 6.22272 27.6814C7.03793 27.7902 7.66675 28.4884 7.66675 29.3333C7.66675 30.2538 6.92056 31 6.00008 31H3.33341C2.73296 31 2.17892 30.677 1.88308 30.1545C1.58724 29.632 1.59533 28.9907 1.90426 28.4758C4.11328 24.7942 6.11072 20.9177 7.68289 17.7344C7.5141 17.5641 7.35955 17.3791 7.22338 17.1774C6.6832 16.3774 6.5478 15.4889 6.68816 14.6117C6.81818 13.7991 7.18183 13.0006 7.61602 12.2408C8.05857 11.4664 8.64399 10.6151 9.31954 9.6863Z" fill="black"/>
</svg>
