<svg width="32" height="32" viewBox="0 0 32 32" fill="none" xmlns="http://www.w3.org/2000/svg">
<path fill-rule="evenodd" clip-rule="evenodd" d="M14.9999 5.33333C14.9999 3.49238 16.4923 2 18.3333 2C20.1742 2 21.6666 3.49238 21.6666 5.33333C21.6666 7.17428 20.1742 8.66667 18.3333 8.66667C16.4923 8.66667 14.9999 7.17428 14.9999 5.33333ZM11.8086 7.23752C12.4965 6.82476 13.3809 6.96066 13.9131 7.56092C15.1368 8.94095 17.0113 9.98402 18.9983 10.6824C20.9791 11.3787 22.8834 11.6667 23.9999 11.6667C27.1295 11.6667 29.6666 14.2037 29.6666 17.3333C29.6666 18.8726 29.0529 20.2685 28.0568 21.2897L28.8913 21.0602C29.7789 20.8161 30.6962 21.3378 30.9403 22.2253C31.1843 23.1128 30.6627 24.0302 29.7752 24.2742L3.10853 31.6076C2.221 31.8516 1.30366 31.33 1.05959 30.4425C0.81552 29.555 1.33714 28.6376 2.22467 28.3936L4.30796 27.8206C2.35585 26.9258 0.999932 24.9546 0.999932 22.6667C0.999932 19.5371 3.53698 17 6.6666 17C9.79621 17 12.3333 19.5371 12.3333 22.6667C12.3333 23.8643 11.9617 24.9751 11.3277 25.8902L22.5339 22.8085C20.1149 22.1624 18.3333 19.956 18.3333 17.3333C18.3333 16.1977 18.6673 15.1401 19.2426 14.2534C18.7964 14.1278 18.3447 13.9859 17.893 13.8272C16.6763 13.3995 15.4057 12.8307 14.2202 12.0926C13.8704 12.2711 13.3305 12.5567 12.7443 12.9039C12.4663 13.0686 12.1904 13.2398 11.9269 13.4133C12.5054 13.5488 13.0391 13.6755 13.4714 13.7979C14.2994 14.0326 15.2104 14.3613 15.9208 15.0507C16.6864 15.7937 17.0114 16.7401 17.1385 17.7633C17.2608 18.7479 17.2197 19.972 17.1073 21.459C17.0379 22.3768 16.2376 23.0647 15.3197 22.9953C14.4019 22.9259 13.7141 22.1255 13.7835 21.2077C13.8949 19.7338 13.9083 18.8 13.8306 18.1742C13.7588 17.5967 13.6323 17.4746 13.601 17.4443L13.5995 17.4429C13.5158 17.3617 13.293 17.212 12.5626 17.005C12.1366 16.8843 11.6855 16.7796 11.1325 16.6512C10.6961 16.5498 10.1964 16.4338 9.59547 16.2836C8.85063 16.0973 8.19401 15.8677 7.65077 15.5726C7.11534 15.2817 6.57942 14.8669 6.24078 14.2573C5.44469 12.8244 6.24629 11.5072 6.81067 10.8402C7.42728 10.1114 8.32081 9.4426 9.16473 8.87639C9.93521 8.35945 10.7807 7.85317 11.5319 7.40331C11.6257 7.34714 11.7181 7.29185 11.8086 7.23752ZM23.9999 15C22.7113 15 21.6666 16.0447 21.6666 17.3333C21.6666 18.622 22.7113 19.6667 23.9999 19.6667C25.2886 19.6667 26.3333 18.622 26.3333 17.3333C26.3333 16.0447 25.2886 15 23.9999 15ZM6.6666 20.3333C5.37793 20.3333 4.33327 21.378 4.33327 22.6667C4.33327 23.9553 5.37793 25 6.6666 25C7.95526 25 8.99993 23.9553 8.99993 22.6667C8.99993 21.378 7.95526 20.3333 6.6666 20.3333ZM30.9296 27.5216C31.1941 28.4033 30.6938 29.3324 29.8122 29.5969L23.1455 31.5969C22.2639 31.8614 21.3347 31.3611 21.0702 30.4795C20.8057 29.5978 21.306 28.6687 22.1877 28.4042L28.8544 26.4042C29.736 26.1397 30.6651 26.64 30.9296 27.5216Z" fill="#B3B3B3"/>
</svg>
