<svg width="28" height="29" viewBox="0 0 28 29" fill="none" xmlns="http://www.w3.org/2000/svg">
<path fill-rule="evenodd" clip-rule="evenodd" d="M18 3.66665C18 1.82572 19.4924 0.333351 21.3333 0.333313C23.1743 0.333275 24.6667 1.82567 24.6667 3.66665C24.6666 5.50757 23.1743 6.99994 21.3333 6.99998C19.4924 7.00002 18 5.50762 18 3.66665ZM1.66671 5.33331C1.66671 4.41284 2.4129 3.66665 3.33337 3.66665C5.28888 3.66665 9.24344 4.01341 12.7366 4.78967C14.4745 5.17587 16.2106 5.69214 17.5506 6.38335C17.767 6.49501 17.9823 6.61581 18.1917 6.74692C18.2131 6.7598 18.2343 6.7732 18.2552 6.78713C18.6695 7.05228 19.0588 7.35873 19.3863 7.71561C19.8651 8.23739 20.2608 8.92624 20.3244 9.76373C20.3863 9.95507 20.5245 10.1189 20.8129 10.2568C21.1815 10.4331 21.7346 10.521 22.3477 10.4334C23.658 10.2462 24.3334 9.50289 24.3334 8.66665C24.3334 7.74617 25.0796 6.99998 26 6.99998C26.9205 6.99998 27.6667 7.74617 27.6667 8.66665C27.6667 11.8304 25.0087 13.4204 22.8191 13.7332C21.6822 13.8956 20.4436 13.7752 19.3747 13.264C19.2571 13.2077 19.1412 13.1464 19.0277 13.08C18.9331 13.2152 18.8354 13.3506 18.7353 13.4859C18.4838 13.8255 18.2079 14.176 17.9145 14.5314C18.5544 14.9822 19.1013 15.5244 19.4773 16.1989C20.1042 17.3237 20.1049 18.5351 19.7697 19.708C19.4482 20.8328 18.7925 22.0245 17.9493 23.2892C17.5655 23.8647 17.128 24.4769 16.6411 25.1284C17.2425 25.38 17.6651 25.974 17.6651 26.6666C17.6651 27.5871 16.9189 28.3333 15.9984 28.3333H13.3332C12.6925 28.3333 12.1085 27.9661 11.831 27.3886C11.5535 26.8112 11.6315 26.1257 12.0317 25.6255C13.359 23.9664 14.4051 22.596 15.1759 21.44C15.958 20.2671 16.386 19.4172 16.5647 18.7919C16.7296 18.2149 16.6471 17.9679 16.5657 17.8218C16.4673 17.6453 16.2277 17.3731 15.6496 17.0364C14.5462 18.166 13.3921 19.2363 12.4079 20.0393C11.9126 20.4435 11.4313 20.8039 11.0032 21.0725C10.7903 21.2061 10.5596 21.3368 10.3253 21.4392C10.1272 21.5257 9.76389 21.6666 9.33337 21.6666C8.11633 21.6666 6.92348 21.0102 5.89625 20.2978C5.2611 19.8573 4.57811 19.3137 3.85102 18.6915L3.49075 19.412C3.0791 20.2353 2.07798 20.569 1.25468 20.1574C0.431386 19.7457 0.0976788 18.7446 0.509328 17.9213L1.84266 15.2546C2.07655 14.7869 2.51644 14.456 3.03073 14.361C3.54502 14.2661 4.07406 14.418 4.45958 14.7714C5.8011 16.0011 6.89839 16.9363 7.79583 17.5587C8.48939 18.0397 8.92049 18.2295 9.15116 18.2982C9.17522 18.2839 9.20189 18.2676 9.23126 18.2492C9.49589 18.0831 9.85832 17.8175 10.3005 17.4567C11.0422 16.8514 11.9271 16.0451 12.8172 15.1593C12.7682 15.1062 12.7209 15.0523 12.6754 14.9975C12.3478 14.6023 12.0858 14.128 11.9748 13.5692C11.8632 13.0081 11.9262 12.4742 12.0797 11.9954C12.3619 11.1155 12.9921 10.309 13.6302 9.59215C13.8784 9.31327 14.1563 9.01783 14.4579 8.70629C13.735 8.46464 12.9082 8.24244 12.0135 8.04363C8.75664 7.31988 5.04453 6.99998 3.33337 6.99998C2.4129 6.99998 1.66671 6.25379 1.66671 5.33331ZM8.99057 18.3847C8.96832 18.3944 8.97026 18.3916 8.99286 18.3837C8.99207 18.3841 8.9913 18.3844 8.99057 18.3847ZM20.3334 24.6667C20.3334 22.8258 21.8258 21.3334 23.6667 21.3333C25.5077 21.3333 27.0001 22.8257 27 24.6667C27 26.5076 25.5076 28 23.6667 28C21.8257 28.0001 20.3333 26.5077 20.3334 24.6667Z" fill="#F2B646"/>
</svg>
