<svg width="24" height="24" viewBox="0 0 24 24" fill="none" xmlns="http://www.w3.org/2000/svg">
<g clip-path="url(#clip0_1102_159)">
<path fill-rule="evenodd" clip-rule="evenodd" d="M22.3038 0.787343C22.9735 0.954847 23.3806 1.63356 23.2131 2.30328L22.2127 6.30328C22.0452 6.97301 21.3665 7.38014 20.6968 7.21264C20.027 7.04513 19.6199 6.36642 19.7874 5.6967L19.9217 5.15989C19.718 5.14277 19.4868 5.12378 19.2332 5.10363C19.133 6.92209 18.587 8.99269 17.5754 10.6997C16.8049 12 15.701 13.1795 14.2499 13.7972L14.2499 16.1868C14.706 15.8611 15.1796 15.5639 15.6413 15.3131C16.1337 15.0456 16.6402 14.8157 17.1213 14.6619C17.5727 14.5176 18.1305 14.3973 18.6713 14.479C18.9586 14.5224 19.2937 14.6311 19.5938 14.8745C19.9067 15.1284 20.1026 15.4654 20.193 15.8255C20.3549 16.4706 20.1716 17.1429 19.9414 17.7033C19.6174 18.4921 19.0117 19.4953 18.0802 20.752C18.7332 20.7934 19.2501 21.3361 19.2501 21.9995C19.2501 22.6899 18.6904 23.2495 18.0001 23.2495H15.4997C15.0146 23.2495 14.5734 22.9689 14.3677 22.5297C14.1619 22.0904 14.2289 21.5718 14.5394 21.1992C16.0785 19.3525 16.9581 18.0701 17.4031 17.2284C17.2261 17.3068 17.0354 17.4008 16.8347 17.5099C16.0348 17.9444 15.1864 18.5565 14.555 19.1677C13.9132 19.789 13.0196 20.2491 11.9999 20.2491C10.9803 20.2491 10.0867 19.789 9.44488 19.1677C8.81343 18.5565 7.96509 17.9444 7.16519 17.5099C6.96434 17.4008 6.77353 17.3067 6.59645 17.2283C7.04137 18.07 7.92086 19.3524 9.45994 21.1993C9.77044 21.5719 9.83738 22.0905 9.63165 22.5297C9.42593 22.9689 8.98469 23.2495 8.49967 23.2495H6.00005C5.3097 23.2495 4.75005 22.6899 4.75005 21.9995C4.75005 21.3363 5.2666 20.7937 5.91934 20.7521C4.98787 19.4953 4.38226 18.492 4.05827 17.7032C3.82811 17.1428 3.64481 16.4705 3.80683 15.8254C3.89726 15.4653 4.09319 15.1283 4.40606 14.8745C4.70612 14.6311 5.04124 14.5224 5.32859 14.479C5.86936 14.3973 6.42716 14.5176 6.87855 14.6619C7.35965 14.8157 7.86612 15.0456 8.35857 15.3131C8.82027 15.5639 9.2938 15.8611 9.74991 16.1868L9.74992 13.797C8.29903 13.1793 7.19517 11.9999 6.42472 10.6997C5.41312 8.9927 4.86709 6.92209 4.76695 5.10363C4.51328 5.12378 4.28219 5.14276 4.0785 5.15989L4.21273 5.69682C4.38017 6.36656 3.97296 7.04523 3.30322 7.21267C2.63348 7.3801 1.95481 6.9729 1.78737 6.30316L0.787373 2.30316C0.619937 1.63342 1.02714 0.954748 1.69688 0.787313C2.36663 0.619877 3.04529 1.02708 3.21273 1.69682L3.46434 2.70328C3.55901 2.69504 3.664 2.68601 3.77838 2.67632C4.33657 2.62905 5.11948 2.56605 6.01959 2.50304C7.81292 2.3775 10.0978 2.24999 12.0001 2.24999C13.9023 2.24999 16.1872 2.3775 17.9805 2.50304C18.8806 2.56605 19.6635 2.62905 20.2217 2.67632C20.3362 2.68602 20.4413 2.69506 20.5361 2.70331L20.7878 1.6967C20.9553 1.02697 21.6341 0.619839 22.3038 0.787343ZM7.261 4.9263C7.33467 6.3875 7.77963 8.08232 8.57544 9.42523C9.4468 10.8956 10.6027 11.75 12.0001 11.75C13.3975 11.75 14.5533 10.8956 15.4247 9.42524C16.2205 8.08233 16.6654 6.38751 16.7391 4.9263C15.192 4.82995 13.4648 4.74999 12.0001 4.74999C10.5353 4.74999 8.80809 4.82995 7.261 4.9263ZM9.50011 8.24999C9.50014 6.8693 10.6194 5.75002 12.0001 5.74999C13.3808 5.74996 14.5001 6.86926 14.5001 8.24999C14.5001 9.63068 13.3808 10.75 12.0001 10.75C10.6194 10.75 9.50008 9.63072 9.50011 8.24999Z" fill="black"/>
</g>
<defs>
<clipPath id="clip0_1102_159">
<rect width="24" height="24" fill="white"/>
</clipPath>
</defs>
</svg>
