<svg width="32" height="32" viewBox="0 0 32 32" fill="none" xmlns="http://www.w3.org/2000/svg">
<path fill-rule="evenodd" clip-rule="evenodd" d="M20.3332 10.6666C20.3333 8.82572 21.8257 7.33335 23.6666 7.33331C25.5075 7.33327 26.9999 8.82567 26.9999 10.6666C26.9999 12.5076 25.5075 13.9999 23.6666 14C21.8256 14 20.3332 12.5076 20.3332 10.6666ZM19.8479 14.1576C19.847 14.1567 19.846 14.1557 19.8451 14.1548C17.5593 11.869 14.5757 10.5895 11.8786 9.96018C9.21024 9.33755 6.59537 9.29974 4.92888 9.71651C4.0359 9.93984 3.49305 10.8448 3.71637 11.7377C3.93969 12.6307 4.84463 13.1736 5.7376 12.9503C6.73778 12.7001 8.78957 12.6623 11.1212 13.2063C12.768 13.5906 14.4389 14.239 15.8841 15.2042C15.2391 15.8769 14.3725 16.7019 13.4124 17.5287C11.9407 18.796 10.3994 19.9369 9.25455 20.5093C9.12379 20.5747 9.00537 20.6549 8.90033 20.747C7.27495 21.1252 5.66316 21.1974 3.37439 20.1237C2.54104 19.7328 1.54859 20.0915 1.15767 20.9248C0.76676 21.7582 1.12542 22.7506 1.95876 23.1415C5.23038 24.6762 7.71035 24.4847 9.97581 23.9161C10.6297 23.752 11.2174 23.5772 11.7757 23.4111C13.1752 22.9948 14.3899 22.6334 15.9999 22.6334C17.616 22.6334 18.925 23.0215 20.4231 23.4656L20.4232 23.4656C20.5681 23.5086 20.7149 23.5521 20.8638 23.5958C21.747 23.8551 22.6732 23.3493 22.9324 22.4661C23.1917 21.5829 22.6859 20.6567 21.8027 20.3974C21.6544 20.3539 21.503 20.3087 21.3483 20.2625C20.76 20.0868 20.1242 19.897 19.4363 19.7327C19.799 19.3611 20.1571 18.9715 20.4586 18.5995C22.1185 19.3908 23.829 19.7157 25.2701 19.8283C26.4531 19.9207 27.4996 19.8743 28.2647 19.806C28.6488 19.7718 28.9638 19.7318 29.1892 19.7009C29.261 19.691 29.3333 19.6807 29.3866 19.6731L29.445 19.6648L29.4674 19.6617C30.3242 19.5934 30.9988 18.8771 30.9999 18.0025C31.0011 17.082 30.2559 16.3349 29.3354 16.3337C29.2187 16.3335 29.114 16.3465 29.0955 16.3488L29.0932 16.3491C29.0548 16.3536 29.0143 16.3592 28.9819 16.3638L28.8975 16.3757L28.8973 16.3758C28.8503 16.3825 28.8009 16.3896 28.7356 16.3985C28.5444 16.4248 28.2844 16.4577 27.9685 16.4859C27.3336 16.5425 26.4801 16.5794 25.5298 16.5051C23.6044 16.3546 21.4568 15.7647 19.8479 14.1576ZM29.4896 19.6588L29.5043 19.6571C29.5046 19.657 29.5027 19.6572 29.4983 19.6577C29.4961 19.658 29.4932 19.6583 29.4896 19.6588Z" fill="black"/>
</svg>
