<svg width="32" height="32" viewBox="0 0 32 32" fill="none" xmlns="http://www.w3.org/2000/svg">
<path fill-rule="evenodd" clip-rule="evenodd" d="M14.6666 5.66665C14.6667 3.82572 16.1591 2.33335 18 2.33331C19.841 2.33327 21.3334 3.82567 21.3333 5.66665C21.3333 7.50757 19.8409 8.99994 18 8.99998C16.159 9.00002 14.6666 7.50762 14.6666 5.66665ZM26.7641 7.10548C26.5957 7.1506 26.2444 7.31513 25.8599 7.98111C25.4652 8.66467 25.3398 9.36088 25.3826 9.88164C25.4156 10.2837 25.5256 10.4479 25.5629 10.4953C25.6227 10.5039 25.8199 10.5171 26.1846 10.3446C26.657 10.1213 27.1973 9.6646 27.592 8.98099C27.9766 8.31488 27.9433 7.92841 27.8982 7.76017C27.8485 7.5745 27.7108 7.3817 27.4482 7.23009C27.1858 7.07854 26.9499 7.05568 26.7641 7.10548ZM25.9013 3.88575C27.0816 3.56945 28.2227 3.82824 29.1149 4.34334C30.007 4.85837 30.8017 5.71711 31.118 6.89746C31.4389 8.09524 31.2053 9.38925 30.4787 10.6477C29.7623 11.8885 28.7253 12.8306 27.6094 13.3581C27.0061 13.6434 26.2903 13.8425 25.56 13.8338L23.4434 17.5C23.0715 18.1442 22.3176 18.4639 21.5959 18.2836C19.5947 17.7835 17.2961 16.6423 15.3155 14.8495C14.7753 15.758 14.2601 16.6048 13.763 17.4001C14.0409 17.5266 14.3446 17.6627 14.6765 17.8102C14.9198 17.9183 15.1564 18.0227 15.3858 18.124C16.5082 18.6193 17.4566 19.0378 18.1579 19.4371C19.0258 19.9314 19.9033 20.6024 20.2595 21.76C20.576 22.7889 20.3649 23.8905 20.1175 24.89C19.9761 25.4612 19.772 26.1716 19.5367 26.9909C19.5359 26.9937 19.5351 26.9964 19.5343 26.9992H19.9991C20.9195 26.9992 21.6657 27.7454 21.6657 28.6659C21.6657 29.5864 20.9195 30.3326 19.9991 30.3326H17.3326C16.8131 30.3326 16.3233 30.0903 16.008 29.6774C15.6927 29.2646 15.5879 28.7283 15.7247 28.2271C15.9676 27.337 16.1796 26.6015 16.3618 25.9692C16.5754 25.2284 16.7481 24.6292 16.8818 24.089C17.1309 23.0829 17.0915 22.8028 17.0743 22.7427C17.073 22.7409 17.0709 22.7381 17.0678 22.7342C17.0621 22.727 17.0522 22.7155 17.0365 22.6998C16.9666 22.6294 16.8182 22.5102 16.5084 22.3337C15.9687 22.0264 15.22 21.6955 14.0981 21.1996C13.8574 21.0932 13.5995 20.9792 13.3228 20.8563C12.8298 20.6372 12.3625 20.4281 11.9274 20.2253C10.0496 22.9913 8.32722 25.1226 6.29912 27.3082C6.72334 27.6103 7.00002 28.1062 7.00002 28.6666C7.00002 29.5871 6.25382 30.3333 5.33335 30.3333H2.66668C1.99258 30.3333 1.38485 29.9272 1.12688 29.3045C0.868915 28.6817 1.01151 27.9648 1.48817 27.4881C4.48933 24.487 6.63398 22.0669 9.06546 18.5061C8.47938 17.9434 8.00713 17.1718 8.08806 16.1219C8.13535 15.5083 8.37025 14.9653 8.62684 14.5159C8.79253 14.2258 8.99232 13.9321 9.21415 13.6356C7.03036 13.9976 4.82714 14.0497 2.39268 13.644C1.48473 13.4926 0.871368 12.6339 1.02269 11.726C1.17402 10.818 2.03273 10.2047 2.94068 10.356C6.55826 10.9589 9.59281 10.3791 13.4735 9.08551C14.2146 8.83846 15.0279 9.13936 15.4297 9.80931C16.8872 12.2389 19.1764 13.8665 21.2279 14.6706L22.6732 12.1671C22.3005 11.539 22.1151 10.8195 22.0605 10.1545C21.9594 8.92434 22.2567 7.55526 22.9731 6.31445C23.6996 5.05605 24.7035 4.20673 25.9013 3.88575Z" fill="black"/>
</svg>
