<svg width="32" height="32" viewBox="0 0 32 32" fill="none" xmlns="http://www.w3.org/2000/svg">
<path fill-rule="evenodd" clip-rule="evenodd" d="M23.3338 2.33337C21.4929 2.33341 20.0005 3.82578 20.0005 5.66671C20.0005 7.50768 21.4929 9.00008 23.3338 9.00004C25.1747 9 26.6671 7.50763 26.6672 5.66671C26.6672 3.82573 25.1748 2.33334 23.3338 2.33337ZM5.33386 5.66671C4.41339 5.66671 3.66719 6.4129 3.66719 7.33337C3.66719 8.25385 4.41339 9.00004 5.33386 9.00004C7.04502 9.00004 10.7571 9.31994 14.014 10.0437C14.9084 10.2425 15.735 10.4646 16.4578 10.7062C16.1562 11.0177 15.8784 11.3131 15.6302 11.592C14.9921 12.309 14.362 13.1155 14.0799 13.9955C13.9264 14.4743 13.8635 15.0083 13.9751 15.5694C14.0862 16.1281 14.3481 16.6024 14.6758 16.9975C14.7213 17.0524 14.7686 17.1063 14.8176 17.1594C13.9276 18.0452 13.0427 18.8515 12.301 19.4567C11.8588 19.8176 11.4964 20.0832 11.2317 20.2492C11.2024 20.2677 11.1757 20.2839 11.1516 20.2982C10.921 20.2296 10.4899 20.0398 9.79632 19.5588C8.89888 18.9364 7.80158 18.0012 6.46007 16.7715C6.07455 16.4181 5.5455 16.2661 5.03121 16.3611C4.51693 16.4561 4.07703 16.7869 3.84315 17.2547L2.50982 19.9214C2.09817 20.7446 2.43187 21.7458 3.25517 22.1574C4.07847 22.5691 5.07959 22.2354 5.49124 21.4121L5.85151 20.6915C6.5786 21.3138 7.26159 21.8574 7.89674 22.2979C8.92397 23.0103 10.1168 23.6667 11.3339 23.6667C11.7644 23.6667 12.1276 23.5258 12.3258 23.4392C12.5601 23.3368 12.7908 23.2062 13.0037 23.0726C13.4318 22.8039 13.9131 22.4435 14.4084 22.0394C15.3944 21.2348 16.551 20.1621 17.6562 19.0302C18.3797 19.414 18.7945 19.7071 19.0374 19.9652C19.2442 20.185 19.3343 20.3796 19.3343 20.7498C19.3342 21.2247 19.1768 21.9694 18.698 23.1961C18.2278 24.4005 17.5078 25.925 16.5096 27.9213C16.2512 28.438 16.2788 29.0515 16.5825 29.5429C16.8862 30.0343 17.4226 30.3334 18.0003 30.3334H20.6655C21.586 30.3334 22.3321 29.5872 22.3321 28.6667C22.3321 27.7472 21.5875 27.0016 20.6684 27.0001C21.1232 26.0358 21.5032 25.1765 21.8031 24.4082C22.3245 23.0724 22.6674 21.8587 22.6676 20.7503C22.6677 19.5371 22.258 18.5235 21.4647 17.6807C21.0369 17.2261 20.5146 16.8409 19.9449 16.4952C20.2271 16.1522 20.4929 15.814 20.7358 15.4859C20.8359 15.3507 20.9336 15.2153 21.0282 15.0801C21.1417 15.1465 21.2576 15.2078 21.3752 15.264C22.4441 15.7752 23.6827 15.8957 24.8196 15.7333C27.0092 15.4205 29.6672 13.8305 29.6672 10.6667C29.6672 9.74623 28.921 9.00004 28.0005 9.00004C27.0801 9.00004 26.3339 9.74623 26.3339 10.6667C26.3339 11.5029 25.6585 12.2463 24.3482 12.4335C23.735 12.521 23.182 12.4332 22.8134 12.2569C22.5249 12.119 22.3867 11.9551 22.3249 11.7638C22.2613 10.9263 21.8655 10.2375 21.3868 9.71567C21.0588 9.3583 20.669 9.05151 20.254 8.78611C20.2338 8.77267 20.2133 8.75972 20.1926 8.74726C19.9831 8.61605 19.7677 8.49515 19.551 8.38341C18.2111 7.6922 16.475 7.17594 14.7371 6.78973C11.2439 6.01347 7.28937 5.66671 5.33386 5.66671ZM10.9911 20.3848C10.9688 20.3945 10.9708 20.3917 10.9933 20.3838L10.9911 20.3848Z" fill="#F2B646"/>
</svg>
